<svg viewBox="0 0 296 60" fill="none" xmlns="http://www.w3.org/2000/svg">
<path d="M0 1.11111C0 0.497461 0.479695 0 1.07143 0H58.9286C59.5203 0 60 0.497461 60 1.11111V58.8889C60 59.5025 59.5203 60 58.9286 60H1.07143C0.479694 60 0 59.5025 0 58.8889V1.11111Z" fill="#D1D1D1"/>
<path d="M19.0629 32.7378C18.7371 33.9644 18.2143 34.9778 17.4943 35.7778C16.7743 36.56 15.9171 37.1378 14.9229 37.5111C13.9286 37.8667 12.8314 38.0444 11.6314 38.0444C9.91714 38.0444 8.43429 37.6889 7.18286 36.9778C5.93143 36.2489 4.97143 35.2089 4.30286 33.8578C3.63429 32.5067 3.3 30.88 3.3 28.9778C3.3 27.0756 3.63429 25.4489 4.30286 24.0978C4.97143 22.7467 5.93143 21.7156 7.18286 21.0044C8.43429 20.2756 9.90857 19.9111 11.6057 19.9111C12.7886 19.9111 13.8771 20.0889 14.8714 20.4444C15.8657 20.7822 16.7057 21.3067 17.3914 22.0178C18.0771 22.7289 18.5657 23.6444 18.8571 24.7644L14.9743 26.3911C14.7343 25.2889 14.34 24.5333 13.7914 24.1244C13.26 23.7156 12.5829 23.5111 11.76 23.5111C10.9543 23.5111 10.2514 23.7156 9.65143 24.1244C9.06857 24.5333 8.61429 25.1467 8.28857 25.9644C7.98 26.7644 7.82571 27.7689 7.82571 28.9778C7.82571 30.1689 7.97143 31.1733 8.26286 31.9911C8.55429 32.8089 8.99143 33.4222 9.57429 33.8311C10.1743 34.24 10.9114 34.4444 11.7857 34.4444C12.6086 34.4444 13.3029 34.2133 13.8686 33.7511C14.4514 33.2711 14.8457 32.5422 15.0514 31.5644L19.0629 32.7378Z" fill="white"/>
<path d="M32.7181 39.5378V43.1378H18.8581V39.5378H32.7181Z" fill="white"/>
<path d="M53.8569 20.1778V37.7778H49.9483V29.6978L50.0769 24.2844H50.0255L45.834 37.7778H42.2598L38.0683 24.2844H38.0169L38.1455 29.6978V37.7778H34.2112V20.1778H40.5112L43.1855 29.1378L44.1369 32.8711H44.1883L45.1655 29.1644L47.814 20.1778H53.8569Z" fill="white"/>
<path d="M95.22 35.7C94.74 37.14 94.02 38.364 93.06 39.372C92.1 40.356 90.972 41.1 89.676 41.604C88.38 42.108 86.952 42.36 85.392 42.36C83.112 42.36 81.132 41.868 79.452 40.884C77.772 39.9 76.476 38.496 75.564 36.672C74.652 34.848 74.196 32.664 74.196 30.12C74.196 27.576 74.652 25.392 75.564 23.568C76.476 21.744 77.772 20.34 79.452 19.356C81.132 18.372 83.1 17.88 85.356 17.88C86.916 17.88 88.32 18.096 89.568 18.528C90.84 18.96 91.92 19.608 92.808 20.472C93.696 21.336 94.38 22.416 94.86 23.712L91.224 25.332C90.744 23.916 90.048 22.884 89.136 22.236C88.224 21.564 87.036 21.228 85.572 21.228C84.108 21.228 82.824 21.576 81.72 22.272C80.616 22.968 79.752 23.976 79.128 25.296C78.528 26.616 78.228 28.224 78.228 30.12C78.228 31.992 78.516 33.6 79.092 34.944C79.668 36.264 80.496 37.272 81.576 37.968C82.656 38.664 83.952 39.012 85.464 39.012C86.928 39.012 88.188 38.64 89.244 37.896C90.324 37.128 91.092 35.988 91.548 34.476L95.22 35.7ZM106.869 23.64C108.621 23.64 110.169 24.012 111.513 24.756C112.857 25.5 113.901 26.58 114.645 27.996C115.413 29.388 115.797 31.056 115.797 33C115.797 34.944 115.413 36.624 114.645 38.04C113.901 39.432 112.857 40.5 111.513 41.244C110.169 41.988 108.621 42.36 106.869 42.36C105.117 42.36 103.569 41.988 102.225 41.244C100.881 40.5 99.8254 39.432 99.0574 38.04C98.2894 36.624 97.9054 34.944 97.9054 33C97.9054 31.056 98.2894 29.388 99.0574 27.996C99.8254 26.58 100.881 25.5 102.225 24.756C103.569 24.012 105.117 23.64 106.869 23.64ZM106.869 26.664C105.789 26.664 104.865 26.916 104.097 27.42C103.353 27.9 102.777 28.608 102.369 29.544C101.961 30.48 101.757 31.632 101.757 33C101.757 34.344 101.961 35.496 102.369 36.456C102.777 37.392 103.353 38.112 104.097 38.616C104.865 39.096 105.789 39.336 106.869 39.336C107.949 39.336 108.861 39.096 109.605 38.616C110.349 38.112 110.925 37.392 111.333 36.456C111.741 35.496 111.945 34.344 111.945 33C111.945 31.632 111.741 30.48 111.333 29.544C110.925 28.608 110.349 27.9 109.605 27.42C108.861 26.916 107.949 26.664 106.869 26.664ZM127.015 42.36C125.527 42.36 124.171 41.988 122.947 41.244C121.747 40.5 120.799 39.432 120.103 38.04C119.407 36.648 119.059 34.98 119.059 33.036C119.059 31.02 119.431 29.316 120.175 27.924C120.919 26.532 121.915 25.476 123.163 24.756C124.411 24.012 125.779 23.64 127.267 23.64C128.803 23.64 130.099 24.06 131.155 24.9C132.211 25.74 132.919 26.832 133.279 28.176L132.847 28.572V15.9H136.699V42H133.279L132.991 37.104L133.495 37.14C133.327 38.22 132.931 39.156 132.307 39.948C131.683 40.716 130.903 41.316 129.967 41.748C129.055 42.156 128.071 42.36 127.015 42.36ZM127.843 39.264C128.875 39.264 129.763 39 130.507 38.472C131.251 37.944 131.827 37.2 132.235 36.24C132.643 35.28 132.847 34.128 132.847 32.784C132.847 31.536 132.643 30.468 132.235 29.58C131.827 28.668 131.251 27.972 130.507 27.492C129.787 27.012 128.947 26.772 127.987 26.772C126.379 26.772 125.131 27.324 124.243 28.428C123.355 29.532 122.911 31.056 122.911 33C122.911 34.944 123.343 36.48 124.207 37.608C125.071 38.712 126.283 39.264 127.843 39.264ZM144.078 20.976C143.238 20.976 142.59 20.772 142.134 20.364C141.702 19.932 141.486 19.332 141.486 18.564C141.486 17.796 141.702 17.208 142.134 16.8C142.59 16.392 143.238 16.188 144.078 16.188C144.894 16.188 145.518 16.392 145.95 16.8C146.406 17.208 146.634 17.796 146.634 18.564C146.634 19.332 146.406 19.932 145.95 20.364C145.518 20.772 144.894 20.976 144.078 20.976ZM145.986 24V42H142.134V24H145.986ZM151.473 42V24H154.893L155.145 28.68L154.641 28.176C154.977 27.144 155.457 26.292 156.081 25.62C156.729 24.924 157.485 24.42 158.349 24.108C159.237 23.796 160.173 23.64 161.157 23.64C162.429 23.64 163.569 23.892 164.577 24.396C165.609 24.876 166.425 25.608 167.025 26.592C167.625 27.576 167.925 28.824 167.925 30.336V42H164.073V31.524C164.073 29.748 163.701 28.524 162.957 27.852C162.237 27.156 161.325 26.808 160.221 26.808C159.429 26.808 158.661 27 157.917 27.384C157.173 27.744 156.549 28.332 156.045 29.148C155.565 29.964 155.325 31.056 155.325 32.424V42H151.473ZM189.062 20.22L189.674 23.244C189.602 23.244 189.53 23.244 189.458 23.244C189.386 23.22 189.314 23.208 189.242 23.208C188.09 23.208 187.214 23.46 186.614 23.964C186.014 24.444 185.714 25.152 185.714 26.088L183.842 25.224C183.842 24.264 184.046 23.412 184.454 22.668C184.862 21.9 185.438 21.3 186.182 20.868C186.95 20.436 187.814 20.22 188.774 20.22C188.822 20.22 188.87 20.22 188.918 20.22C188.966 20.22 189.014 20.22 189.062 20.22ZM183.374 39.192C185.198 39.192 186.614 39.6 187.622 40.416C188.63 41.208 189.134 42.312 189.134 43.728C189.134 44.976 188.738 46.044 187.946 46.932C187.154 47.844 186.074 48.54 184.706 49.02C183.362 49.5 181.814 49.74 180.062 49.74C177.11 49.74 174.926 49.284 173.51 48.372C172.094 47.46 171.386 46.32 171.386 44.952C171.386 43.992 171.722 43.152 172.394 42.432C173.09 41.712 174.254 41.304 175.886 41.208L175.67 41.784C174.662 41.568 173.846 41.184 173.222 40.632C172.622 40.056 172.322 39.252 172.322 38.22C172.322 37.188 172.718 36.312 173.51 35.592C174.302 34.872 175.418 34.452 176.858 34.332L178.874 35.304H178.442C177.338 35.4 176.558 35.652 176.102 36.06C175.646 36.468 175.418 36.924 175.418 37.428C175.418 38.028 175.634 38.472 176.066 38.76C176.522 39.048 177.158 39.192 177.974 39.192H183.374ZM180.062 46.86C181.382 46.86 182.462 46.728 183.302 46.464C184.166 46.224 184.802 45.9 185.21 45.492C185.642 45.108 185.858 44.676 185.858 44.196C185.858 43.644 185.63 43.2 185.174 42.864C184.742 42.528 183.95 42.36 182.798 42.36H177.002C176.33 42.36 175.766 42.528 175.31 42.864C174.854 43.224 174.626 43.704 174.626 44.304C174.626 45.096 175.106 45.72 176.066 46.176C177.026 46.632 178.358 46.86 180.062 46.86ZM179.918 23.64C181.502 23.64 182.87 23.892 184.022 24.396C185.198 24.9 186.098 25.608 186.722 26.52C187.37 27.432 187.694 28.5 187.694 29.724C187.694 30.948 187.37 32.016 186.722 32.928C186.098 33.84 185.198 34.548 184.022 35.052C182.87 35.556 181.502 35.808 179.918 35.808C177.422 35.808 175.502 35.256 174.158 34.152C172.838 33.024 172.178 31.548 172.178 29.724C172.178 28.5 172.502 27.432 173.15 26.52C173.798 25.608 174.698 24.9 175.85 24.396C177.026 23.892 178.382 23.64 179.918 23.64ZM179.918 26.34C178.814 26.34 177.89 26.652 177.146 27.276C176.426 27.876 176.066 28.692 176.066 29.724C176.066 30.756 176.426 31.584 177.146 32.208C177.89 32.832 178.814 33.144 179.918 33.144C181.046 33.144 181.97 32.832 182.69 32.208C183.434 31.584 183.806 30.756 183.806 29.724C183.806 28.692 183.434 27.876 182.69 27.276C181.97 26.652 181.046 26.34 179.918 26.34ZM210.121 45.168V48.516H190.717V45.168H210.121ZM237.411 18.24V42H233.847V28.248L234.135 21.696H234.099L226.863 42H223.659L216.423 21.696H216.387L216.675 28.248V42H213.111V18.24H218.835L223.623 31.992L225.279 37.644H225.351L227.043 31.992L231.795 18.24H237.411ZM253.619 30.444C253.619 29.244 253.283 28.32 252.611 27.672C251.963 27 251.063 26.664 249.911 26.664C248.831 26.664 247.907 26.916 247.139 27.42C246.371 27.924 245.807 28.74 245.447 29.868L242.207 28.5C242.663 27.036 243.551 25.86 244.871 24.972C246.215 24.084 247.943 23.64 250.055 23.64C251.495 23.64 252.767 23.88 253.871 24.36C254.975 24.816 255.839 25.512 256.463 26.448C257.111 27.384 257.435 28.584 257.435 30.048V38.076C257.435 38.964 257.879 39.408 258.767 39.408C259.199 39.408 259.619 39.348 260.027 39.228L259.811 41.892C259.259 42.156 258.563 42.288 257.723 42.288C256.955 42.288 256.259 42.156 255.635 41.892C255.035 41.604 254.555 41.184 254.195 40.632C253.859 40.056 253.691 39.348 253.691 38.508V38.256L254.483 38.22C254.267 39.156 253.823 39.936 253.151 40.56C252.479 41.16 251.699 41.616 250.811 41.928C249.923 42.216 249.023 42.36 248.111 42.36C246.983 42.36 245.963 42.18 245.051 41.82C244.163 41.46 243.455 40.92 242.927 40.2C242.423 39.456 242.171 38.544 242.171 37.464C242.171 36.12 242.603 35.016 243.467 34.152C244.355 33.288 245.603 32.7 247.211 32.388L254.195 31.02L254.159 33.72L249.083 34.764C248.075 34.956 247.319 35.232 246.815 35.592C246.311 35.952 246.059 36.48 246.059 37.176C246.059 37.848 246.311 38.388 246.815 38.796C247.343 39.18 248.039 39.372 248.903 39.372C249.503 39.372 250.079 39.3 250.631 39.156C251.207 39.012 251.723 38.784 252.179 38.472C252.635 38.136 252.983 37.716 253.223 37.212C253.487 36.684 253.619 36.06 253.619 35.34V30.444ZM267.759 18.708V36.6C267.759 37.488 267.987 38.136 268.443 38.544C268.923 38.952 269.559 39.156 270.351 39.156C270.999 39.156 271.563 39.06 272.043 38.868C272.523 38.652 272.967 38.364 273.375 38.004L274.239 40.812C273.687 41.292 273.003 41.676 272.187 41.964C271.395 42.228 270.507 42.36 269.523 42.36C268.491 42.36 267.543 42.192 266.679 41.856C265.815 41.52 265.143 40.98 264.663 40.236C264.183 39.468 263.931 38.472 263.907 37.248V19.788L267.759 18.708ZM273.951 24V27.024H260.451V24H273.951ZM285.141 42.36C283.341 42.36 281.757 41.988 280.389 41.244C279.021 40.5 277.953 39.432 277.185 38.04C276.441 36.624 276.069 34.944 276.069 33C276.069 31.056 276.441 29.388 277.185 27.996C277.953 26.58 279.009 25.5 280.353 24.756C281.697 24.012 283.221 23.64 284.925 23.64C286.677 23.64 288.165 24 289.389 24.72C290.613 25.44 291.549 26.424 292.197 27.672C292.845 28.92 293.169 30.336 293.169 31.92C293.169 32.352 293.157 32.76 293.133 33.144C293.109 33.528 293.073 33.864 293.025 34.152H278.553V31.2H291.333L289.425 31.776C289.425 30.144 289.017 28.896 288.201 28.032C287.385 27.144 286.269 26.7 284.853 26.7C283.821 26.7 282.921 26.94 282.153 27.42C281.385 27.9 280.797 28.62 280.389 29.58C279.981 30.516 279.777 31.668 279.777 33.036C279.777 34.38 279.993 35.52 280.425 36.456C280.857 37.392 281.469 38.1 282.261 38.58C283.053 39.06 283.989 39.3 285.069 39.3C286.269 39.3 287.241 39.072 287.985 38.616C288.729 38.16 289.317 37.524 289.749 36.708L292.809 38.148C292.377 39.012 291.789 39.768 291.045 40.416C290.325 41.04 289.461 41.52 288.453 41.856C287.445 42.192 286.341 42.36 285.141 42.36Z" fill="black"/>
</svg>
